<?xml version="1.0" encoding="utf-8"?>
<!-- Generator: Adobe Illustrator 19.0.1, SVG Export Plug-In . SVG Version: 6.00 Build 0)  -->
<svg version="1.1" xmlns="http://www.w3.org/2000/svg" xmlns:xlink="http://www.w3.org/1999/xlink" x="0px" y="0px"
    viewBox="52.1 201.3 499.6 430.9" style="enable-background:new 52.1 201.3 499.6 430.9;" xml:space="preserve">
<style type="text/css">
    .calm-tree-svg{fill:#FFFFFF;}
</style>
<g>
    <path class="calm-tree-svg" d="M526,340.9c-2.6,7.4-8.4,13.5-16.3,16.3c-6.9,2.5-14.2,1.9-20.4-0.9c0.8-0.3,1.5-0.4,2.3-0.7
        c5.6-2,10.3-4.6,13.2-7c-3.8-0.1-9,0.9-14.6,3c-0.8,0.3-1.4,0.6-2.2,1c3-6.2,8.1-11.3,15.1-13.8C510.9,335.9,519.3,336.9,526,340.9
        z"/>
    <path class="calm-tree-svg" d="M379.3,376c0.4-0.8,0.5-1.5,0.8-2.2c2.4,6.3,2.6,13.6-0.4,20.4c-3.3,7.7-9.8,13.1-17.4,15.2
        c-3.5-6.9-4-15.3-0.6-23.1c2.9-6.7,8.4-11.6,14.7-14.1c-0.3,0.7-0.7,1.3-1,2.1c-2.4,5.4-3.7,10.7-4,14.4
        C374,386,376.9,381.4,379.3,376z"/>
    <path class="calm-tree-svg" d="M433.2,389.4c-0.6-0.7-1.1-1.1-1.7-1.7c6.8,0.4,13.5,3.2,18.4,8.7c5.6,6.2,7.9,14.4,6.7,22.1
        c-7.8,0.4-15.7-2.7-21.3-8.9c-4.9-5.4-7.1-12.4-6.9-19.2c0.5,0.6,0.9,1.2,1.5,1.8c4,4.4,8.2,7.8,11.5,9.5
        C440.1,398.3,437.2,393.8,433.2,389.4z"/>
    <path class="calm-tree-svg" d="M295.1,389.9c-0.5-0.6-1-1-1.5-1.5c6.2,0.3,12.3,2.9,16.8,7.9c5.1,5.7,7.1,13.1,6.1,20.1
        c-7.1,0.3-14.2-2.4-19.4-8.1c-4.5-4.9-6.5-11.3-6.2-17.5c0.5,0.5,0.8,1.1,1.4,1.7c3.6,4,7.5,7.1,10.5,8.7
        C301.4,398,298.7,393.9,295.1,389.9z"/>
    <path class="calm-tree-svg" d="M477.8,394.3c-11.4-2.9-20.3-10.2-25.9-19.5c1.3,0.4,2.3,0.9,3.6,1.2c9.1,2.4,17.7,3.1,23.6,2.5
        c-4.9-3.4-12.7-6.9-21.9-9.2c-1.3-0.4-2.4-0.5-3.7-0.7c9.4-5.3,20.8-7.4,32.1-4.5c12.9,3.3,23,12.2,28.3,23.3
        C503.8,394.8,490.7,397.7,477.8,394.3z"/>
    <path class="calm-tree-svg" d="M458.9,283c6.2-5.6,14.4-7.8,22.1-6.7c0.3,7.8-2.7,15.7-9,21.3c-5.5,4.9-12.4,7.1-19.3,6.8
        c0.6-0.5,1.2-0.9,1.9-1.5c4.4-4,7.8-8.2,9.5-11.5c-3.5,1.4-8,4.3-12.5,8.3c-0.6,0.5-1.1,1.1-1.7,1.7
        C450.6,294.6,453.5,288,458.9,283z"/>
    <path class="calm-tree-svg" d="M245.7,405.9c6.2-5.6,14.4-7.8,22.1-6.7c0.3,7.8-2.7,15.7-9,21.3c-5.5,4.9-12.4,7.1-19.3,6.8
        c0.6-0.5,1.2-0.9,1.9-1.5c4.4-4,7.8-8.2,9.6-11.5c-3.5,1.4-8,4.3-12.5,8.3c-0.6,0.6-1.1,1.1-1.7,1.7
        C237.3,417.5,240.2,410.9,245.7,405.9z"/>
    <path class="calm-tree-svg" d="M458.2,318.6c12.3-5.1,25.7-4.1,36.6,1.7c-3.7,11.8-12.4,22-24.7,27.1c-10.8,4.5-22.3,4-32.4,0
        c1.2-0.5,2.3-0.7,3.6-1.2c8.7-3.6,16-8.1,20.4-12.2c-6,0.2-14.3,2.2-23,5.8c-1.3,0.5-2.2,1.1-3.4,1.6
        C439.6,331.6,447.4,323.1,458.2,318.6z"/>
    <path class="calm-tree-svg" d="M441.3,303.2c-3.2,11.3-10.7,20-20.1,25.4c0.4-1.2,0.9-2.2,1.3-3.6c2.6-9,3.5-17.5,3.1-23.5
        c-3.6,4.8-7.2,12.6-9.7,21.7c-0.4,1.3-0.5,2.4-0.8,3.7c-5.1-9.5-6.9-20.9-3.7-32.2c3.6-12.8,12.7-22.6,24.1-27.7
        C442.4,277.2,445,290.4,441.3,303.2z"/>
    <path class="calm-tree-svg" d="M406.2,250.5c1.3-8.3,6.2-15.1,12.9-19.2c5.2,5.8,7.8,13.9,6.6,22.2c-1.1,7.3-5.1,13.4-10.6,17.5
        c0.1-0.8,0.4-1.5,0.5-2.3c0.9-5.9,0.8-11.3,0.1-14.9c-1.9,3.3-3.5,8.4-4.4,14.3c-0.1,0.8-0.1,1.6-0.2,2.4
        C407.1,264.8,405.1,257.8,406.2,250.5z"/>
    <path class="calm-tree-svg" d="M409.4,344.9c13.2,2,24.1,9.8,30.4,20.4c-9.3,8.2-22,12.4-35.2,10.4c-11.6-1.8-21.2-8.2-27.7-16.8
        c1.3,0.2,2.4,0.6,3.7,0.8c9.3,1.4,17.9,1.4,23.7,0.2c-5.2-2.9-13.3-5.6-22.7-7c-1.3-0.2-2.5-0.2-3.8-0.3
        C386.7,346.3,397.8,343.2,409.4,344.9z"/>
    <path class="calm-tree-svg" d="M389.2,328c-7.1,9.3-17.3,14.6-28,16.2c0.8-1,1.7-1.8,2.5-2.9c5.7-7.5,9.8-15,11.5-20.7c-5,3.2-11.3,9-17,16.6
        c-0.8,1.1-1.3,2.1-2.1,3.2c-1.3-10.8,1.2-22,8.4-31.3c8.1-10.6,20.2-16.4,32.6-16.9C399.7,304.2,397.3,317.4,389.2,328z"/>
    <path class="calm-tree-svg" d="M313.5,381.8c-1.2,0.7-2,1.4-3.1,2.2c2.9-10.5,9.4-20,19.4-25.9c11.5-6.8,24.9-7.7,36.5-3.5
        c-2,12.3-9.1,23.6-20.6,30.4c-10.1,6-21.5,7.1-32,4.6c1.1-0.6,2.2-1,3.3-1.7c8.1-4.8,14.7-10.3,18.4-14.9
        C329.6,373.9,321.6,377,313.5,381.8z"/>
    <path class="calm-tree-svg" d="M298.3,355.7c-1.3,3.5-2.2,8.9-2.2,14.8c0,0.8,0.1,1.6,0.2,2.4c-4.8-4.9-7.8-11.5-7.8-18.9
        c0-8.4,3.8-15.9,9.8-20.9c6,5,9.8,12.5,9.8,20.9c0,7.4-3,14-7.8,18.9c0-0.8,0.2-1.5,0.2-2.4C300.5,364.6,299.7,359.2,298.3,355.7z"
        />
    <path class="calm-tree-svg" d="M292.3,324.8c0.4-1.2,0.9-2.2,1.3-3.5c2.7-9.1,3.8-17.6,3.4-23.5c-3.6,4.8-7.3,12.5-10,21.5
        c-0.4,1.3-0.5,2.4-0.9,3.7c-5-9.6-6.6-21-3.3-32.2c3.8-12.8,13-22.5,24.5-27.4c6.9,10.3,9.3,23.5,5.4,36.3
        C309.4,310.8,301.8,319.5,292.3,324.8z"/>
    <path class="calm-tree-svg" d="M279.7,387.8c1.1,0.7,2.2,1.1,3.3,1.7c-10.5,2.5-22,1.3-32.1-4.6c-11.5-6.8-18.7-18.1-20.6-30.4
        c11.7-4.2,25.1-3.3,36.6,3.5c10.1,5.9,16.6,15.5,19.4,25.9c-1.1-0.7-1.9-1.5-3.1-2.2c-8.1-4.8-16.1-8-22-9
        C265,377.5,271.5,383,279.7,387.8z"/>
    <path class="calm-tree-svg" d="M387.8,278.4c-7.1,9.3-17.3,14.6-28,16.2c0.8-1,1.7-1.8,2.5-2.8c5.7-7.5,9.8-15,11.5-20.7
        c-5.1,3.2-11.3,9-17,16.5c-0.8,1.1-1.3,2.1-2.1,3.1c-1.3-10.8,1.2-22,8.4-31.3c8.1-10.6,20.2-16.4,32.6-16.9
        C398.4,254.7,396,267.8,387.8,278.4z"/>
    <path class="calm-tree-svg" d="M350.8,227.8c2.2-8.1,7.8-14.4,14.9-17.7c4.5,6.4,6.3,14.6,4.1,22.7c-1.9,7.1-6.6,12.7-12.4,16.2
        c0.2-0.8,0.5-1.5,0.8-2.3c1.6-5.8,2.1-11.1,1.7-14.9c-2.2,3.1-4.4,8-5.9,13.8c-0.2,0.8-0.3,1.5-0.5,2.3
        C350.1,242.1,348.8,234.9,350.8,227.8z"/>
    <path class="calm-tree-svg" d="M345.4,320.2c-1.9,7.1-6.6,12.7-12.4,16.2c0.2-0.8,0.5-1.5,0.8-2.3c1.6-5.8,2.1-11.1,1.7-14.9
        c-2.2,3.1-4.4,8-5.9,13.8c-0.2,0.8-0.3,1.5-0.5,2.3c-3.4-6-4.6-13.1-2.7-20.2c2.2-8.1,7.8-14.4,14.9-17.7
        C345.9,303.8,347.6,312.1,345.4,320.2z"/>
    <path class="calm-tree-svg" d="M321.9,222.4c10.9,6,19.1,16.5,21.7,29.6c2.3,11.5-0.5,22.7-6.4,31.7c-0.2-1.3-0.2-2.4-0.5-3.7
        c-1.8-9.3-4.8-17.3-7.9-22.4c-1,5.9-0.7,14.4,1.1,23.7c0.3,1.3,0.7,2.4,1,3.7c-8.9-6.2-15.7-15.5-17.9-27
        C310.4,244.9,314,232,321.9,222.4z"/>
    <path class="calm-tree-svg" d="M298.3,201.3c6,5,9.8,12.5,9.8,20.9c0,7.4-3,14-7.8,18.9c0-0.8,0.2-1.5,0.2-2.4c0-5.9-0.8-11.3-2.2-14.8
        c-1.3,3.5-2.2,8.9-2.2,14.8c0,0.8,0.1,1.6,0.2,2.4c-4.8-4.9-7.8-11.5-7.8-18.9C288.5,213.8,292.3,206.3,298.3,201.3z"/>
    <path class="calm-tree-svg" d="M253.2,252c2.5-13.1,10.8-23.7,21.7-29.6c7.8,9.6,11.5,22.5,8.9,35.6c-2.2,11.5-9,20.8-17.9,27
        c0.3-1.3,0.7-2.4,1-3.7c1.8-9.3,2.1-17.8,1.1-23.7c-3.1,5.1-6,13.1-7.9,22.4c-0.3,1.3-0.3,2.5-0.5,3.7
        C253.6,274.7,250.9,263.5,253.2,252z"/>
    <path class="calm-tree-svg" d="M255.3,297.5c7.1,3.3,12.7,9.5,14.9,17.7c1.9,7.1,0.7,14.3-2.7,20.2c-0.2-0.8-0.2-1.5-0.5-2.3
        c-1.5-5.8-3.7-10.7-5.9-13.8c-0.3,3.7,0.2,9.1,1.7,14.9c0.2,0.8,0.5,1.5,0.8,2.3c-5.9-3.5-10.5-9.1-12.4-16.2
        C249.1,312.1,250.8,303.8,255.3,297.5z"/>
    <path class="calm-tree-svg" d="M197.9,403.1c7.8,0.3,15.4,3.9,20.5,10.6c4.5,5.8,6.1,12.9,5.3,19.7c-0.5-0.7-0.8-1.3-1.3-2
        c-3.6-4.7-7.5-8.4-10.7-10.4c1.1,3.6,3.7,8.3,7.3,13.1c0.5,0.7,1,1.2,1.6,1.8c-6.8-1-13.2-4.4-17.7-10.2
        C197.7,419,196.2,410.8,197.9,403.1z"/>
    <path class="calm-tree-svg" d="M231,210.1c7.1,3.3,12.7,9.5,14.9,17.7c1.9,7.1,0.7,14.3-2.7,20.2c-0.2-0.8-0.2-1.5-0.5-2.3
        c-1.5-5.8-3.7-10.7-5.9-13.8c-0.3,3.8,0.2,9.1,1.7,14.9c0.2,0.8,0.5,1.5,0.8,2.3c-5.9-3.5-10.5-9.1-12.4-16.2
        C224.8,224.8,226.5,216.5,231,210.1z"/>
    <path class="calm-tree-svg" d="M201,242.6c12.4,0.5,24.5,6.3,32.6,16.9c7.1,9.3,9.6,20.5,8.4,31.3c-0.8-1-1.3-2.1-2.1-3.1
        c-5.8-7.5-12-13.4-17-16.5c1.8,5.7,5.8,13.3,11.5,20.7c0.8,1.1,1.7,1.8,2.5,2.8c-10.7-1.6-20.9-6.9-28-16.2
        C200.7,267.8,198.3,254.7,201,242.6z"/>
    <path class="calm-tree-svg" d="M199.7,292.1c12.4,0.5,24.5,6.3,32.6,16.9c7.1,9.3,9.6,20.5,8.4,31.3c-0.8-1.1-1.3-2.1-2.1-3.2
        c-5.8-7.5-12-13.4-17-16.6c1.8,5.7,5.8,13.3,11.5,20.7c0.8,1.1,1.7,1.8,2.5,2.9c-10.7-1.6-20.9-6.9-28-16.2
        C199.4,317.4,197,304.2,199.7,292.1z"/>
    <path class="calm-tree-svg" d="M222.9,379.9c-1.2-0.5-2.2-1.1-3.5-1.5c-8.9-3.2-17.3-4.7-23.3-4.6c4.6,3.8,12.1,7.9,21,11.1
        c1.3,0.5,2.4,0.6,3.7,1c-9.8,4.5-21.3,5.6-32.3,1.7c-12.6-4.5-21.8-14.2-26.1-25.8c10.6-6.3,23.9-8,36.5-3.6
        C209.8,362.1,218,370.2,222.9,379.9z"/>
    <path class="calm-tree-svg" d="M163.8,426.6c-0.3-0.8-0.8-1.4-1.1-2.1c6.3,2.6,11.7,7.4,14.7,14.1c3.4,7.8,2.9,16.2-0.6,23.1
        c-7.5-2.1-14-7.5-17.4-15.2c-3-6.8-2.9-14-0.4-20.4c0.3,0.7,0.5,1.4,0.8,2.2c2.4,5.4,5.3,10,7.9,12.7
        C167.5,437.3,166.2,432,163.8,426.6z"/>
    <path class="calm-tree-svg" d="M141.2,376c1.3-0.3,2.4-0.8,3.6-1.2c-5.6,9.3-14.6,16.5-25.9,19.5c-12.9,3.3-26,0.4-36.1-6.8
        c5.3-11.2,15.4-20.1,28.3-23.3c11.4-2.9,22.7-0.9,32.1,4.5c-1.3,0.3-2.4,0.4-3.7,0.7c-9.2,2.3-17,5.8-21.9,9.2
        C123.6,379.1,132.1,378.4,141.2,376z"/>
    <path class="calm-tree-svg" d="M123.3,433.7c5-5.5,11.7-8.3,18.4-8.7c-0.5,0.6-1.1,1-1.7,1.7c-4,4.4-6.9,8.9-8.3,12.4
        c3.3-1.7,7.5-5.1,11.5-9.6c0.6-0.6,1-1.3,1.5-1.8c0.3,6.8-1.9,13.8-6.9,19.2c-5.7,6.3-13.5,9.3-21.3,8.9
        C115.5,448,117.7,439.9,123.3,433.7z"/>
    <path class="calm-tree-svg" d="M177.6,231.3c6.7,4,11.6,10.9,12.9,19.2c1.1,7.3-0.9,14.3-4.9,19.8c-0.1-0.8-0.1-1.5-0.2-2.4
        c-0.9-5.9-2.5-11-4.4-14.3c-0.7,3.7-0.8,9,0.1,14.9c0.1,0.8,0.4,1.5,0.5,2.3c-5.4-4.1-9.4-10.2-10.6-17.5
        C169.8,245.2,172.4,237.2,177.6,231.3z"/>
    <path class="calm-tree-svg" d="M161.3,267c11.3,5.1,20.4,14.8,24.1,27.7c3.2,11.3,1.4,22.7-3.7,32.2c-0.3-1.3-0.5-2.4-0.8-3.7
        c-2.6-9.1-6.2-16.8-9.7-21.7c-0.4,6,0.6,14.5,3.1,23.5c0.4,1.3,0.9,2.4,1.3,3.6c-9.4-5.4-16.9-14.1-20.1-25.4
        C151.7,290.4,154.3,277.2,161.3,267z"/>
    <path class="calm-tree-svg" d="M115.6,276.3c7.7-1.1,15.9,1.1,22.1,6.7c5.5,4.9,8.3,11.6,8.8,18.4c-0.6-0.6-1.1-1.1-1.7-1.7
        c-4.5-4-8.9-6.9-12.5-8.3c1.8,3.3,5.1,7.5,9.6,11.5c0.6,0.6,1.3,1,1.9,1.5c-6.8,0.3-13.8-1.9-19.3-6.8
        C118.3,292,115.3,284.1,115.6,276.3z"/>
    <path class="calm-tree-svg" d="M138.5,318.6c10.8,4.5,18.6,13,23,22.9c-1.2-0.5-2.1-1.1-3.4-1.6c-8.7-3.6-17-5.6-23-5.8
        c4.4,4,11.6,8.5,20.4,12.2c1.3,0.5,2.4,0.8,3.6,1.2c-10.1,4-21.6,4.5-32.4,0c-12.3-5.1-21-15.3-24.7-27.1
        C112.8,314.5,126.2,313.5,138.5,318.6z"/>
    <path class="calm-tree-svg" d="M93.7,338.7c7,2.5,12.1,7.6,15.1,13.8c-0.8-0.3-1.4-0.7-2.2-1c-5.6-2-10.8-3-14.6-3c2.9,2.4,7.6,5,13.2,7
        c0.8,0.3,1.5,0.4,2.3,0.7c-6.2,2.8-13.4,3.4-20.4,0.9c-7.9-2.8-13.7-9-16.3-16.3C77.4,336.9,85.8,335.9,93.7,338.7z"/>
    <path class="calm-tree-svg" d="M68.8,399c7-2.4,14.2-1.6,20.4,1.3c-0.8,0.2-1.5,0.3-2.3,0.6c-5.6,1.9-10.4,4.4-13.3,6.8
        c3.7,0.1,9.1-0.8,14.7-2.7c0.8-0.3,1.5-0.6,2.2-0.9c-3.1,6.1-8.4,11.1-15.4,13.4c-8,2.7-16.4,1.5-23-2.6
        C54.9,407.7,60.9,401.7,68.8,399z"/>
    <path class="calm-tree-svg" d="M528.7,382.2c-7-2.4-12.2-7.4-15.4-13.4c0.7,0.2,1.4,0.6,2.2,0.9c5.6,1.9,11,2.8,14.7,2.7
        c-2.9-2.4-7.7-4.9-13.3-6.8c-0.8-0.3-1.5-0.4-2.3-0.6c6.1-3,13.3-3.7,20.4-1.3c7.9,2.7,13.9,8.7,16.7,16
        C545,383.7,536.7,384.9,528.7,382.2z"/>
    <g>
        <path class="calm-tree-svg" d="M359.1,417.1c-15.2-0.8-44.2-0.1-72.1,14c-18.6,9.5-57.8,35.1-51.3,85c3.8-70.1,87.9-88.9,116.7-87.3
            c67.1,3.7,125.6,16,180.1-15.6C490.7,437.4,395.4,419,359.1,417.1z"/>
        <path class="calm-tree-svg" d="M192.3,521.5c0,118.5,214.2,89.7,214.2,89.7c-141.3,0-171.7-46-176.8-85.7c-1.8-14-0.7-33.1,5-47.3
            c7.8-19.4,20.4-35.4,39.6-47.6C233,444.1,192.3,470.9,192.3,521.5z"/>
        <path class="calm-tree-svg" d="M196.3,584.8c15,23.8,67.2,42.3,136,46.3c-97.1-26.9-143.5-46.1-143.5-104.6
            C188.9,526.5,179.4,557.9,196.3,584.8z"/>
        <path class="calm-tree-svg" d="M160.6,568.3c-22.6,22.9-32.6,50.8-74.9,37.6c19.1,14.7,39.8,13.6,61.8,1.4
            C156.5,596.1,152.2,579.8,160.6,568.3z"/>
        <path class="calm-tree-svg" d="M112.7,628.5c73,16.1,63.3-26.1,88.5-28c-27-18.8-23.5-42-17.4-60.5C141.2,591.2,179.9,628.8,112.7,628.5z"/>
        <path class="calm-tree-svg" d="M91.8,466.6c-0.2-18.1,23.6-52.7,59.2-48.7c46.7,5.3,49.3,43.3,46.3,69.2c9-19.4,10.9-39.1-0.6-56.4
            c-12.4-18.5-46.7-39.3-85-14.4C90,430.5,90.5,455.8,91.8,466.6z"/>
    </g>
</g>
</svg>
