<?xml version="1.0" encoding="utf-8"?>
<!-- Generator: Adobe Illustrator 19.0.1, SVG Export Plug-In . SVG Version: 6.00 Build 0)  -->
<svg version="1.1" id="Layer_1" xmlns="http://www.w3.org/2000/svg" xmlns:xlink="http://www.w3.org/1999/xlink" x="0px" y="0px"
	 viewBox="0 0 67.3 40" style="enable-background:new 0 0 67.3 40;" xml:space="preserve">
<style type="text/css">
	.calm-io-logo-svg-st0{fill:#898989;}
</style>
<g>
	<g>
		<path class="calm-io-logo-svg-st0" d="M40.5,14.1c-0.2,0.6-0.7,1.1-1.3,1.3c-0.6,0.2-1.1,0.2-1.6-0.1c0.1,0,0.1,0,0.2-0.1c0.5-0.2,0.8-0.4,1.1-0.6
			c-0.3,0-0.7,0.1-1.2,0.2c-0.1,0-0.1,0.1-0.2,0.1c0.2-0.5,0.7-0.9,1.2-1.1C39.2,13.7,39.9,13.8,40.5,14.1z"/>
		<path class="calm-io-logo-svg-st0" d="M31.3,18.2c0-0.1,0-0.1,0.1-0.2c0.2,0.5,0.2,1.1,0,1.6c-0.3,0.6-0.8,1.1-1.4,1.2c-0.3-0.6-0.3-1.2,0-1.9
			c0.2-0.5,0.7-0.9,1.2-1.1c0,0.1-0.1,0.1-0.1,0.2c-0.2,0.4-0.3,0.9-0.3,1.2C30.9,19,31.2,18.6,31.3,18.2z"/>
		<path class="calm-io-logo-svg-st0" d="M32.9,18.1c0-0.1-0.1-0.1-0.1-0.1c0.5,0,1.1,0.3,1.5,0.7c0.5,0.5,0.6,1.2,0.5,1.8c-0.6,0-1.3-0.2-1.7-0.7
			c-0.4-0.4-0.6-1-0.6-1.6c0,0,0.1,0.1,0.1,0.1c0.3,0.4,0.7,0.6,0.9,0.8C33.5,18.8,33.3,18.4,32.9,18.1z"/>
		<path class="calm-io-logo-svg-st0" d="M22.1,18.3c0-0.1-0.1-0.1-0.1-0.1c0.5,0,1.1,0.3,1.5,0.7c0.5,0.5,0.6,1.2,0.5,1.8c-0.6,0-1.3-0.2-1.7-0.7
			c-0.4-0.4-0.6-1-0.6-1.6c0,0,0.1,0.1,0.1,0.1c0.3,0.4,0.7,0.6,0.9,0.8C22.6,19,22.4,18.6,22.1,18.3z"/>
		<path class="calm-io-logo-svg-st0" d="M36.6,18.5c-0.9-0.2-1.6-0.8-2.1-1.6c0.1,0,0.2,0.1,0.3,0.1c0.7,0.2,1.4,0.3,1.9,0.2c-0.4-0.3-1-0.6-1.8-0.7
			c-0.1,0-0.2,0-0.3-0.1c0.8-0.4,1.7-0.6,2.6-0.4c1,0.3,1.9,1,2.3,1.9C38.7,18.5,37.6,18.7,36.6,18.5z"/>
		<path class="calm-io-logo-svg-st0" d="M35,9.5c0.5-0.5,1.2-0.6,1.8-0.5c0,0.6-0.2,1.3-0.7,1.7c-0.4,0.4-1,0.6-1.6,0.6c0,0,0.1-0.1,0.2-0.1
			c0.4-0.3,0.6-0.7,0.8-0.9c-0.3,0.1-0.6,0.3-1,0.7c0,0-0.1,0.1-0.1,0.1C34.4,10.4,34.6,9.9,35,9.5z"/>
		<path class="calm-io-logo-svg-st0" d="M17.8,19.4c0.5-0.5,1.2-0.6,1.8-0.5c0,0.6-0.2,1.3-0.7,1.7c-0.4,0.4-1,0.6-1.6,0.6c0,0,0.1-0.1,0.2-0.1
			c0.4-0.3,0.6-0.7,0.8-0.9c-0.3,0.1-0.6,0.3-1,0.7c0,0-0.1,0.1-0.1,0.1C17.1,20.3,17.3,19.8,17.8,19.4z"/>
		<path class="calm-io-logo-svg-st0" d="M35,12.3c1-0.4,2.1-0.3,3,0.1c-0.3,1-1,1.8-2,2.2c-0.9,0.4-1.8,0.3-2.6,0c0.1,0,0.2-0.1,0.3-0.1
			c0.7-0.3,1.3-0.7,1.6-1c-0.5,0-1.2,0.2-1.9,0.5c-0.1,0-0.2,0.1-0.3,0.1C33.5,13.4,34.1,12.7,35,12.3z"/>
		<path class="calm-io-logo-svg-st0" d="M33.6,11.1c-0.3,0.9-0.9,1.6-1.6,2.1c0-0.1,0.1-0.2,0.1-0.3c0.2-0.7,0.3-1.4,0.3-1.9c-0.3,0.4-0.6,1-0.8,1.8
			c0,0.1,0,0.2-0.1,0.3c-0.4-0.8-0.6-1.7-0.3-2.6c0.3-1,1-1.8,1.9-2.2C33.7,9,33.9,10.1,33.6,11.1z"/>
		<path class="calm-io-logo-svg-st0" d="M30.8,6.8c0.1-0.7,0.5-1.2,1-1.6c0.4,0.5,0.6,1.1,0.5,1.8c-0.1,0.6-0.4,1.1-0.9,1.4c0-0.1,0-0.1,0-0.2
			c0.1-0.5,0.1-0.9,0-1.2c-0.2,0.3-0.3,0.7-0.4,1.2c0,0.1,0,0.1,0,0.2C30.8,8,30.7,7.4,30.8,6.8z"/>
		<path class="calm-io-logo-svg-st0" d="M31,14.5c1.1,0.2,1.9,0.8,2.5,1.7c-0.8,0.7-1.8,1-2.8,0.8c-0.9-0.1-1.7-0.7-2.2-1.4c0.1,0,0.2,0.1,0.3,0.1
			c0.8,0.1,1.4,0.1,1.9,0c-0.4-0.2-1.1-0.4-1.8-0.6c-0.1,0-0.2,0-0.3,0C29.2,14.6,30.1,14.3,31,14.5z"/>
		<path class="calm-io-logo-svg-st0" d="M29.4,13.1c-0.6,0.8-1.4,1.2-2.3,1.3c0.1-0.1,0.1-0.1,0.2-0.2c0.5-0.6,0.8-1.2,0.9-1.7
			c-0.4,0.3-0.9,0.7-1.4,1.3c-0.1,0.1-0.1,0.2-0.2,0.3c-0.1-0.9,0.1-1.8,0.7-2.5c0.7-0.9,1.6-1.3,2.6-1.4
			C30.2,11.2,30,12.2,29.4,13.1z"/>
		<path class="calm-io-logo-svg-st0" d="M23.3,17.5c-0.1,0.1-0.2,0.1-0.3,0.2c0.2-0.8,0.8-1.6,1.6-2.1c0.9-0.6,2-0.6,3-0.3c-0.2,1-0.7,1.9-1.7,2.5
			c-0.8,0.5-1.7,0.6-2.6,0.4c0.1-0.1,0.2-0.1,0.3-0.1c0.7-0.4,1.2-0.8,1.5-1.2C24.6,16.8,23.9,17.1,23.3,17.5z"/>
		<path class="calm-io-logo-svg-st0" d="M22,15.3c-0.1,0.3-0.2,0.7-0.2,1.2c0,0.1,0,0.1,0,0.2c-0.4-0.4-0.6-0.9-0.6-1.5c0-0.7,0.3-1.3,0.8-1.7
			c0.5,0.4,0.8,1,0.8,1.7c0,0.6-0.2,1.1-0.6,1.5c0-0.1,0-0.1,0-0.2C22.2,16.1,22.1,15.6,22,15.3z"/>
		<path class="calm-io-logo-svg-st0" d="M21.6,12.8c0-0.1,0.1-0.2,0.1-0.3c0.2-0.7,0.3-1.4,0.3-1.9c-0.3,0.4-0.6,1-0.8,1.7c0,0.1,0,0.2-0.1,0.3
			c-0.4-0.8-0.5-1.7-0.3-2.6c0.3-1,1.1-1.8,2-2.2c0.6,0.8,0.7,1.9,0.4,2.9C22.9,11.7,22.3,12.4,21.6,12.8z"/>
		<path class="calm-io-logo-svg-st0" d="M20.5,17.9c0.1,0.1,0.2,0.1,0.3,0.1c-0.9,0.2-1.8,0.1-2.6-0.4c-0.9-0.6-1.5-1.5-1.7-2.5c0.9-0.3,2-0.3,3,0.3
			c0.8,0.5,1.3,1.3,1.6,2.1c-0.1-0.1-0.2-0.1-0.3-0.2c-0.7-0.4-1.3-0.6-1.8-0.7C19.3,17.1,19.9,17.5,20.5,17.9z"/>
		<path class="calm-io-logo-svg-st0" d="M29.3,9.1c-0.6,0.8-1.4,1.2-2.3,1.3c0.1-0.1,0.1-0.1,0.2-0.2C27.7,9.6,28,9,28.1,8.5
			c-0.4,0.3-0.9,0.7-1.4,1.3c-0.1,0.1-0.1,0.2-0.2,0.3c-0.1-0.9,0.1-1.8,0.7-2.5c0.7-0.9,1.6-1.3,2.6-1.4
			C30.1,7.2,29.9,8.2,29.3,9.1z"/>
		<path class="calm-io-logo-svg-st0" d="M26.3,5c0.2-0.7,0.6-1.2,1.2-1.4c0.4,0.5,0.5,1.2,0.3,1.8c-0.2,0.6-0.5,1-1,1.3c0-0.1,0-0.1,0.1-0.2
			C27,6.1,27,5.6,27,5.3c-0.2,0.2-0.4,0.6-0.5,1.1c0,0.1,0,0.1,0,0.2C26.2,6.1,26.1,5.6,26.3,5z"/>
		<path class="calm-io-logo-svg-st0" d="M25.9,12.5c-0.2,0.6-0.5,1-1,1.3c0-0.1,0-0.1,0.1-0.2c0.1-0.5,0.2-0.9,0.1-1.2c-0.2,0.2-0.4,0.6-0.5,1.1
			c0,0.1,0,0.1,0,0.2c-0.3-0.5-0.4-1.1-0.2-1.6c0.2-0.7,0.6-1.2,1.2-1.4C25.9,11.1,26,11.8,25.9,12.5z"/>
		<path class="calm-io-logo-svg-st0" d="M23.9,4.6C24.8,5,25.5,5.9,25.7,7c0.2,0.9,0,1.8-0.5,2.6c0-0.1,0-0.2,0-0.3c-0.1-0.8-0.4-1.4-0.6-1.8
			c-0.1,0.5-0.1,1.2,0.1,1.9c0,0.1,0.1,0.2,0.1,0.3c-0.7-0.5-1.3-1.3-1.5-2.2C23,6.4,23.3,5.3,23.9,4.6z"/>
		<path class="calm-io-logo-svg-st0" d="M22,2.8c0.5,0.4,0.8,1,0.8,1.7c0,0.6-0.2,1.1-0.6,1.5c0-0.1,0-0.1,0-0.2c0-0.5-0.1-0.9-0.2-1.2
			c-0.1,0.3-0.2,0.7-0.2,1.2c0,0.1,0,0.1,0,0.2c-0.4-0.4-0.6-0.9-0.6-1.5C21.2,3.9,21.6,3.3,22,2.8z"/>
		<path class="calm-io-logo-svg-st0" d="M18.4,7c0.2-1.1,0.9-1.9,1.8-2.4c0.6,0.8,0.9,1.8,0.7,2.9c-0.2,0.9-0.7,1.7-1.5,2.2c0-0.1,0.1-0.2,0.1-0.3
			c0.1-0.8,0.2-1.4,0.1-1.9c-0.2,0.4-0.5,1.1-0.6,1.8c0,0.1,0,0.2,0,0.3C18.4,8.8,18.2,7.9,18.4,7z"/>
		<path class="calm-io-logo-svg-st0" d="M18.6,10.6c0.6,0.3,1,0.8,1.2,1.4c0.2,0.6,0.1,1.2-0.2,1.6c0-0.1,0-0.1,0-0.2c-0.1-0.5-0.3-0.9-0.5-1.1
			c0,0.3,0,0.7,0.1,1.2c0,0.1,0,0.1,0.1,0.2c-0.5-0.3-0.9-0.7-1-1.3C18.1,11.8,18.2,11.1,18.6,10.6z"/>
		<path class="calm-io-logo-svg-st0" d="M13.9,19.2c0.6,0,1.2,0.3,1.7,0.9c0.4,0.5,0.5,1,0.4,1.6c0-0.1-0.1-0.1-0.1-0.2c-0.3-0.4-0.6-0.7-0.9-0.8
			c0.1,0.3,0.3,0.7,0.6,1.1c0,0.1,0.1,0.1,0.1,0.1c-0.5-0.1-1.1-0.4-1.4-0.8C13.9,20.5,13.8,19.8,13.9,19.2z"/>
		<path class="calm-io-logo-svg-st0" d="M16.6,3.6c0.6,0.3,1,0.8,1.2,1.4c0.2,0.6,0.1,1.2-0.2,1.6c0-0.1,0-0.1,0-0.2c-0.1-0.5-0.3-0.9-0.5-1.1
			c0,0.3,0,0.7,0.1,1.2c0,0.1,0,0.1,0.1,0.2c-0.5-0.3-0.9-0.7-1-1.3C16.1,4.7,16.2,4.1,16.6,3.6z"/>
		<path class="calm-io-logo-svg-st0" d="M14.2,6.2c1,0,2,0.5,2.6,1.4c0.6,0.8,0.8,1.7,0.7,2.5c-0.1-0.1-0.1-0.2-0.2-0.3c-0.5-0.6-1-1.1-1.4-1.3
			c0.1,0.5,0.5,1.1,0.9,1.7c0.1,0.1,0.1,0.1,0.2,0.2c-0.9-0.1-1.7-0.6-2.3-1.3C14.1,8.2,13.9,7.2,14.2,6.2z"/>
		<path class="calm-io-logo-svg-st0" d="M14.1,10.2c1,0,2,0.5,2.6,1.4c0.6,0.8,0.8,1.7,0.7,2.5c-0.1-0.1-0.1-0.2-0.2-0.3c-0.5-0.6-1-1.1-1.4-1.3
			c0.1,0.5,0.5,1.1,0.9,1.7c0.1,0.1,0.1,0.1,0.2,0.2c-0.9-0.1-1.7-0.6-2.3-1.3C14,12.2,13.8,11.2,14.1,10.2z"/>
		<path class="calm-io-logo-svg-st0" d="M15.9,17.3c-0.1,0-0.2-0.1-0.3-0.1c-0.7-0.3-1.4-0.4-1.9-0.4c0.4,0.3,1,0.6,1.7,0.9c0.1,0,0.2,0.1,0.3,0.1
			c-0.8,0.4-1.7,0.5-2.6,0.1c-1-0.4-1.8-1.1-2.1-2.1c0.9-0.5,1.9-0.7,3-0.3C14.9,15.9,15.5,16.5,15.9,17.3z"/>
		<path class="calm-io-logo-svg-st0" d="M11.2,21.1c0-0.1-0.1-0.1-0.1-0.2c0.5,0.2,0.9,0.6,1.2,1.1c0.3,0.6,0.2,1.3,0,1.9c-0.6-0.2-1.1-0.6-1.4-1.2
			c-0.2-0.5-0.2-1.1,0-1.6c0,0.1,0,0.1,0.1,0.2c0.2,0.4,0.4,0.8,0.6,1C11.5,21.9,11.3,21.5,11.2,21.1z"/>
		<path class="calm-io-logo-svg-st0" d="M9.3,17c0.1,0,0.2-0.1,0.3-0.1c-0.5,0.8-1.2,1.3-2.1,1.6c-1,0.3-2.1,0-2.9-0.6C5,17,5.8,16.3,6.9,16
			c0.9-0.2,1.8-0.1,2.6,0.4c-0.1,0-0.2,0-0.3,0.1c-0.7,0.2-1.4,0.5-1.8,0.7C7.9,17.2,8.6,17.2,9.3,17z"/>
		<path class="calm-io-logo-svg-st0" d="M7.9,21.6c0.4-0.4,0.9-0.7,1.5-0.7c0,0-0.1,0.1-0.1,0.1c-0.3,0.4-0.6,0.7-0.7,1c0.3-0.1,0.6-0.4,0.9-0.8
			c0,0,0.1-0.1,0.1-0.1c0,0.6-0.2,1.1-0.6,1.6c-0.5,0.5-1.1,0.8-1.7,0.7C7.2,22.8,7.4,22.2,7.9,21.6z"/>
		<path class="calm-io-logo-svg-st0" d="M12.3,5.3c0.5,0.3,0.9,0.9,1,1.6c0.1,0.6-0.1,1.2-0.4,1.6c0-0.1,0-0.1,0-0.2c-0.1-0.5-0.2-0.9-0.4-1.2
			c-0.1,0.3-0.1,0.7,0,1.2c0,0.1,0,0.1,0,0.2c-0.4-0.3-0.8-0.8-0.9-1.4C11.6,6.4,11.9,5.8,12.3,5.3z"/>
		<path class="calm-io-logo-svg-st0" d="M11,8.2c0.9,0.4,1.7,1.2,1.9,2.2c0.3,0.9,0.1,1.8-0.3,2.6c0-0.1,0-0.2-0.1-0.3C12.3,12,12,11.3,11.7,11
			c0,0.5,0,1.2,0.3,1.9c0,0.1,0.1,0.2,0.1,0.3c-0.8-0.4-1.4-1.1-1.6-2.1C10.2,10.1,10.4,9,11,8.2z"/>
		<path class="calm-io-logo-svg-st0" d="M7.3,8.9C7.9,8.8,8.5,9,9,9.5c0.4,0.4,0.7,0.9,0.7,1.5c-0.1,0-0.1-0.1-0.1-0.1c-0.4-0.3-0.7-0.6-1-0.7
			c0.1,0.3,0.4,0.6,0.8,0.9c0.1,0,0.1,0.1,0.2,0.1C9,11.2,8.4,11,8,10.6C7.5,10.2,7.2,9.6,7.3,8.9z"/>
		<path class="calm-io-logo-svg-st0" d="M9.1,12.3c0.9,0.4,1.5,1,1.9,1.9c-0.1,0-0.2-0.1-0.3-0.1c-0.7-0.3-1.4-0.5-1.9-0.5c0.4,0.3,0.9,0.7,1.6,1
			c0.1,0,0.2,0.1,0.3,0.1C10,15,9,15,8.1,14.7c-1-0.4-1.7-1.2-2-2.2C7,12,8.1,11.9,9.1,12.3z"/>
		<path class="calm-io-logo-svg-st0" d="M5.5,14c0.6,0.2,1,0.6,1.2,1.1c-0.1,0-0.1-0.1-0.2-0.1c-0.5-0.2-0.9-0.2-1.2-0.2C5.6,15,6,15.2,6.4,15.3
			c0.1,0,0.1,0,0.2,0.1c-0.5,0.2-1.1,0.3-1.6,0.1c-0.6-0.2-1.1-0.7-1.3-1.3C4.2,13.8,4.8,13.7,5.5,14z"/>
		<path class="calm-io-logo-svg-st0" d="M3.5,18.8C4,18.6,4.6,18.7,5.1,19C5.1,19,5,19,4.9,19c-0.5,0.2-0.8,0.4-1.1,0.5c0.3,0,0.7-0.1,1.2-0.2
			c0.1,0,0.1-0.1,0.2-0.1C5,19.8,4.5,20.2,4,20.3c-0.6,0.2-1.3,0.1-1.9-0.2C2.3,19.5,2.8,19.1,3.5,18.8z"/>
		<path class="calm-io-logo-svg-st0" d="M40.1,20.3c-0.6-0.2-1-0.6-1.2-1.1c0.1,0,0.1,0,0.2,0.1c0.5,0.2,0.9,0.2,1.2,0.2c-0.2-0.2-0.6-0.4-1.1-0.5
			C39.1,19,39,19,39,19c0.5-0.2,1.1-0.3,1.6-0.1c0.6,0.2,1.1,0.7,1.3,1.3C41.4,20.5,40.7,20.6,40.1,20.3z"/>
		<g>
			<path class="calm-io-logo-svg-st0" d="M27,20.3c-1.2-0.1-3.6,0-5.8,1.1c-1.5,0.8-4.7,2.8-4.2,6.9c0.3-5.7,7.1-7.2,9.4-7.1
				c5.4,0.3,10.2,1.3,14.6-1.3C37.6,22,29.9,20.5,27,20.3z"/>
			<path class="calm-io-logo-svg-st0" d="M13.5,28.8c0,9.6,17.3,7.3,17.3,7.3c-11.4,0-13.9-3.7-14.3-6.9c-0.1-1.1-0.1-2.7,0.4-3.8
				c0.6-1.6,1.7-2.9,3.2-3.9C16.8,22.5,13.5,24.7,13.5,28.8z"/>
			<path class="calm-io-logo-svg-st0" d="M13.8,33.9c1.2,1.9,5.4,3.4,11,3.7c-7.9-2.2-11.6-3.7-11.6-8.5C13.2,29.2,12.4,31.7,13.8,33.9z"/>
			<path class="calm-io-logo-svg-st0" d="M10.9,32.5c-1.8,1.9-2.6,4.1-6.1,3c1.5,1.2,3.2,1.1,5,0.1C10.6,34.8,10.2,33.5,10.9,32.5z"/>
			<path class="calm-io-logo-svg-st0" d="M7,37.4c5.9,1.3,5.1-2.1,7.2-2.3c-2.2-1.5-1.9-3.4-1.4-4.9C9.3,34.4,12.5,37.4,7,37.4z"/>
			<path class="calm-io-logo-svg-st0" d="M5.3,24.3c0-1.5,1.9-4.3,4.8-3.9c3.8,0.4,4,3.5,3.7,5.6c0.7-1.6,0.9-3.2-0.1-4.6c-1-1.5-3.8-3.2-6.9-1.2
				C5.2,21.4,5.2,23.4,5.3,24.3z"/>
		</g>
	</g>
	<g>
		<g>
			<path class="calm-io-logo-svg-st0" d="M30.9,27.5l-1.3,0.7c-0.2-0.3-0.5-0.4-0.7-0.5c-0.2-0.1-0.5-0.1-0.8-0.1c-0.6,0-1.1,0.2-1.4,0.5
				c-0.4,0.4-0.5,0.8-0.5,1.4c0,0.5,0.2,1,0.5,1.3c0.4,0.3,0.8,0.5,1.4,0.5c0.7,0,1.3-0.2,1.6-0.7l1.2,0.8c-0.7,0.9-1.6,1.3-2.8,1.3
				c-1.1,0-2-0.3-2.6-1c-0.6-0.7-0.9-1.4-0.9-2.3c0-0.6,0.2-1.2,0.5-1.7c0.3-0.5,0.7-0.9,1.3-1.2c0.5-0.3,1.2-0.4,1.8-0.4
				c0.6,0,1.2,0.1,1.7,0.4C30.2,26.7,30.6,27.1,30.9,27.5z"/>
			<path class="calm-io-logo-svg-st0" d="M36.1,26.3h1.6v6.3h-1.6v-0.7c-0.3,0.3-0.6,0.5-0.9,0.6c-0.3,0.1-0.6,0.2-1,0.2c-0.8,0-1.5-0.3-2.1-0.9
				c-0.6-0.6-0.9-1.4-0.9-2.3c0-1,0.3-1.8,0.9-2.4c0.6-0.6,1.3-0.9,2.1-0.9c0.4,0,0.7,0.1,1.1,0.2c0.3,0.1,0.6,0.4,0.9,0.6V26.3z
				 M34.4,27.6c-0.5,0-0.9,0.2-1.2,0.5c-0.3,0.3-0.5,0.8-0.5,1.3c0,0.5,0.2,1,0.5,1.3c0.3,0.3,0.7,0.5,1.2,0.5
				c0.5,0,0.9-0.2,1.2-0.5c0.3-0.3,0.5-0.8,0.5-1.4c0-0.5-0.2-1-0.5-1.3C35.3,27.7,34.9,27.6,34.4,27.6z"/>
			<path class="calm-io-logo-svg-st0" d="M39.1,23.8h1.6v8.7h-1.6V23.8z"/>
			<path class="calm-io-logo-svg-st0" d="M42.1,26.3h1.6V27c0.3-0.3,0.6-0.5,0.9-0.7c0.3-0.1,0.7-0.2,1.1-0.2c0.4,0,0.7,0.1,1.1,0.3
				c0.3,0.2,0.6,0.5,0.8,0.8c0.3-0.4,0.6-0.7,0.9-0.8c0.4-0.2,0.8-0.3,1.2-0.3c0.4,0,0.8,0.1,1.2,0.3c0.3,0.2,0.6,0.5,0.7,0.8
				c0.1,0.3,0.2,0.9,0.2,1.6v3.7h-1.6v-3.2c0-0.7-0.1-1.2-0.3-1.4c-0.2-0.3-0.4-0.4-0.8-0.4c-0.3,0-0.5,0.1-0.7,0.2
				c-0.2,0.2-0.4,0.4-0.5,0.6c-0.1,0.3-0.2,0.7-0.2,1.3v2.8h-1.6v-3c0-0.6,0-1-0.1-1.2c-0.1-0.3-0.2-0.4-0.4-0.6
				c-0.2-0.1-0.4-0.2-0.6-0.2c-0.3,0-0.5,0.1-0.7,0.2c-0.2,0.2-0.4,0.4-0.5,0.7c-0.1,0.3-0.2,0.7-0.2,1.3v2.8h-1.6V26.3z"/>
			<path class="calm-io-logo-svg-st0" d="M54.1,30.9c0.2,0,0.5,0.1,0.6,0.3c0.2,0.2,0.3,0.4,0.3,0.6s-0.1,0.5-0.3,0.6c-0.2,0.2-0.4,0.3-0.6,0.3
				c-0.2,0-0.5-0.1-0.6-0.3c-0.2-0.2-0.3-0.4-0.3-0.6s0.1-0.5,0.3-0.6C53.6,31,53.8,30.9,54.1,30.9z"/>
			<path class="calm-io-logo-svg-st0" d="M56.9,23.7c0.2,0,0.3,0.1,0.5,0.2s0.2,0.3,0.2,0.5c0,0.2-0.1,0.3-0.2,0.5C57.2,25,57.1,25,56.9,25
				c-0.2,0-0.3-0.1-0.5-0.2c-0.1-0.1-0.2-0.3-0.2-0.5c0-0.2,0.1-0.3,0.2-0.5C56.5,23.7,56.7,23.7,56.9,23.7z M56.5,26.3h0.8v6.3
				h-0.8V26.3z"/>
			<path class="calm-io-logo-svg-st0" d="M61.9,26.1c1,0,1.8,0.3,2.4,1c0.6,0.6,0.9,1.4,0.9,2.3c0,0.9-0.3,1.6-0.9,2.3c-0.6,0.7-1.4,1-2.4,1
				c-1,0-1.7-0.3-2.4-1c-0.6-0.7-0.9-1.4-0.9-2.3c0-0.9,0.3-1.6,0.9-2.3C60.2,26.5,61,26.1,61.9,26.1z M61.9,26.9
				c-0.7,0-1.2,0.2-1.7,0.7c-0.5,0.5-0.7,1.1-0.7,1.8c0,0.5,0.1,0.9,0.3,1.3c0.2,0.4,0.5,0.7,0.9,0.9c0.4,0.2,0.8,0.3,1.2,0.3
				c0.4,0,0.9-0.1,1.2-0.3c0.4-0.2,0.7-0.5,0.9-0.9c0.2-0.4,0.3-0.8,0.3-1.3c0-0.7-0.2-1.3-0.7-1.8C63.2,27.1,62.6,26.9,61.9,26.9z"
				/>
		</g>
	</g>
</g>
</svg>
